# Blender v2.78 (sub 0) OBJ File: 'down_tile.blend'
# www.blender.org
mtllib down_tile.mtl
o Cube
v 1.000000 -2.000001 -1.000000
v 1.000000 -1.000000 1.000000
v -1.000000 -1.000000 1.000000
v -1.000000 -2.013139 -1.000000
v 1.000000 -0.000001 -0.999999
v 0.999999 1.000000 1.000001
v -1.000000 1.000000 1.000000
v -1.000000 -0.013139 -1.000000
vn -0.0029 0.8932 -0.4496
vn 0.0029 -0.8932 0.4496
vn -1.0000 -0.0000 -0.0000
vn 1.0000 0.0000 0.0000
usemtl Material
s off
f 1//1 4//1 3//1 2//1
f 5//2 6//2 7//2 8//2
f 1//3 2//3 6//3 5//3
f 3//4 4//4 8//4 7//4
