# Blender v2.78 (sub 0) OBJ File: 'snake.blend'
# www.blender.org
mtllib snake.mtl
o sNAKE_Cube
v 0.999250 4.254019 -1.000575
v 1.000000 4.239629 1.000000
v -0.257855 4.690674 0.774291
v -0.403626 4.806020 -0.939018
v 1.000000 6.239629 -0.999999
v 0.999999 6.239629 1.000000
v -1.515909 5.523327 0.937384
v -1.661680 5.638672 -0.775924
v 2.777746 5.510536 -0.445324
v 2.777745 5.510536 0.445326
v -1.233400 3.316096 0.561711
v -1.357692 3.382999 -0.759422
v -2.595526 3.919884 0.724805
v -2.714911 3.996132 -0.596327
v 1.000000 4.239629 0.000000
v -0.330741 4.748347 -0.082364
v 1.000000 6.239629 0.000001
v -1.588794 5.581000 0.080730
v 2.777745 5.510536 0.000001
v -1.295869 3.348656 -0.098855
v -2.653523 3.960969 0.064239
v -8.194477 9.138895 -3.812749
v -8.230139 9.025347 -3.921725
v -8.158815 9.252443 -3.703774
v -7.921928 9.235221 -3.763350
v -7.993253 9.008125 -3.981301
v -7.957590 9.121673 -3.872325
v -1.874373 1.319630 0.625166
v -3.507742 -1.054134 0.773695
v -5.534192 -1.445795 0.672531
v -8.016247 -0.230391 0.581206
v -8.526250 2.069863 0.496847
v -8.217628 4.307482 0.405068
v -8.103829 6.325776 -0.608721
v -7.970829 7.819574 -2.166574
v -7.999654 7.638432 -2.343382
v -8.105057 6.124928 -0.886600
v -8.221394 4.212652 -0.012629
v -8.552193 2.067156 -0.036594
v -8.023401 -0.225420 -0.045686
v -5.754758 -1.277765 -0.049816
v -3.319241 -0.668101 -0.034016
v -1.906945 1.335646 -0.073515
v -3.176639 1.896193 -0.700283
v -3.981890 0.256873 -0.859118
v -5.647996 -0.238750 -0.755053
v -7.368055 0.298073 -0.677738
v -7.778274 2.082902 -0.609991
v -7.576921 4.068160 -0.446709
v -7.578700 5.915865 -1.160679
v -7.648281 7.443048 -2.562494
v -7.619684 7.622948 -2.387382
v -7.577473 6.117038 -0.882636
v -7.565247 4.163158 -0.029749
v -7.752586 2.084966 -0.076550
v -7.359391 0.293350 -0.050916
v -5.648881 -0.249116 -0.034358
v -3.980664 0.264811 -0.045517
v -3.144006 1.884856 -0.003143
v -3.117364 1.877711 0.696337
v -3.987495 0.269145 0.768085
v -5.657827 -0.257281 0.685740
v -7.350068 0.286362 0.575702
v -7.726646 2.087575 0.456891
v -7.551999 4.259615 0.389713
v -7.576245 6.317894 -0.605114
v -7.591137 7.802846 -2.212579
v -1.941526 1.339573 -0.767894
v -3.329438 -0.688526 -0.847618
v -5.746934 -1.269109 -0.770000
v -8.027020 -0.221800 -0.672884
v -8.578043 2.064537 -0.569493
v -8.233921 4.115531 -0.430539
v -8.106283 5.923923 -1.164099
v -8.028335 7.458131 -2.518574
v 1.000000 4.239629 0.500000
v 0.996719 5.245424 -0.999919
v 0.999999 5.239629 1.000000
v 0.999999 6.239629 0.500001
v 2.777746 5.239629 -0.445324
v 2.777745 5.239629 0.445326
v 2.777745 5.510536 0.222663
v 1.888872 5.875083 0.722663
v 1.888873 5.875083 -0.722662
v 0.999749 4.247341 -0.500324
v 1.000000 6.239629 -0.499999
v 2.777746 5.510536 -0.222662
v 1.888873 5.875083 0.000001
v 1.888873 5.875083 -0.361331
v 1.886619 5.243716 -0.722611
v 1.888872 5.239629 0.722663
v 1.888872 5.875083 0.361332
v 1.000000 4.239629 0.750000
v 0.997679 5.742086 -0.999868
v 0.999999 5.739629 1.000000
v 0.999999 6.239629 0.750001
v 2.777746 5.375083 -0.445324
v 2.777745 5.375083 0.445326
v 2.777745 5.510536 0.333995
v 2.333309 5.692810 0.583995
v 1.444437 6.057356 -0.861331
v 1.442140 4.434147 -0.861646
v 0.999845 4.246495 -0.250296
v 1.000000 6.239629 -0.249999
v 2.777746 5.510536 -0.111330
v 2.333309 5.692810 0.000001
v 1.000000 4.239629 0.250000
v 0.997313 4.749284 -1.000156
v 1.000000 4.739629 1.000000
v 1.000000 6.239629 0.250000
v 2.777745 5.510536 0.111332
v 1.444436 6.057356 0.861332
v 2.333309 5.692810 -0.583993
v 1.444436 4.421903 0.861331
v 0.999545 4.250354 -0.750439
v 1.000000 6.239629 -0.749999
v 2.777746 5.510536 -0.333993
v 1.444436 4.421903 0.000000
v 1.444436 6.057356 0.000001
v 2.333309 5.692810 -0.291996
v 1.444436 6.057356 -0.430665
v 1.888873 5.875083 -0.541996
v 1.888873 5.875083 -0.180665
v 1.444436 4.421903 0.430666
v 2.777746 4.689099 -0.445324
v 1.443377 4.427974 -0.430830
v 2.777746 5.023619 -0.445324
v 2.777745 5.023623 0.445326
v 2.331966 5.242084 -0.583963
v 1.441544 5.244818 -0.861263
v 2.777745 4.689095 0.445326
v 1.887520 5.559275 -0.722607
v 2.333309 5.239629 0.583994
v 1.444436 5.239629 0.861332
v 1.888872 5.557356 0.722663
v 1.444436 5.239629 0.861332
v 2.333309 5.692810 0.291998
v 1.444436 6.057356 0.430666
v 1.888873 5.875083 0.180666
v 1.888872 5.875083 0.541997
v 1.444436 6.057356 0.645999
v 1.444436 6.057356 0.215333
v 2.333309 5.692810 0.145999
v 1.444436 4.830766 0.861331
v 1.444436 5.648493 0.861332
v 2.333309 5.466219 0.583994
v 1.442553 5.650853 -0.861240
v 1.441407 4.839250 -0.861398
v 1.444436 4.421903 0.861331
v 1.442782 4.431041 -0.646240
v 1.443925 4.424947 -0.215417
v 1.444436 5.239629 0.861332
v 1.444436 4.421903 0.215333
v 1.444436 4.421903 0.645999
v 1.444436 4.830766 0.861331
v 1.444436 6.057356 -0.215332
v 1.444437 6.057356 -0.645998
v 2.333309 5.692810 -0.437994
v 2.333309 5.692810 -0.145998
v 2.777745 4.689095 0.445326
v 2.777745 5.023623 0.445326
v 2.332585 5.467352 -0.583968
v 1.444436 5.239629 0.861332
v 2.333309 5.692810 0.437996
v 1.884376 5.247783 -0.722560
v 1.888872 5.239629 0.722663
v 2.330735 5.244334 -0.583937
v 1.441544 5.244818 -0.861263
v 2.333309 5.239629 0.583994
v 1.444436 5.239629 0.861332
vn 0.0134 -0.9998 -0.0154
vn 0.0179 -0.9998 -0.0083
vn 0.0779 -0.7426 0.6651
vn 0.0799 -0.5936 0.8007
vn 0.2953 -0.9520 -0.0799
vn 0.0707 0.9973 0.0209
vn -0.5777 0.8124 0.0788
vn -0.4444 0.5532 0.7046
vn 0.0984 0.7148 0.6923
vn 0.0632 0.9978 0.0212
vn 0.3794 0.9252 0.0000
vn 0.4539 0.6201 0.6398
vn 0.7487 0.4497 0.4870
vn 0.8305 0.5570 0.0000
vn 0.1162 -0.0449 0.9922
vn -0.6499 0.2434 0.7200
vn 0.6615 -0.3713 0.6516
vn 0.1122 0.7354 -0.6682
vn 0.1155 0.0129 -0.9932
vn 0.1157 0.0135 -0.9932
vn 0.1159 0.0141 -0.9931
vn 0.0601 -0.7341 -0.6764
vn 0.0450 -0.4263 -0.9034
vn -0.5080 0.6344 -0.5826
vn 0.2973 -0.0008 -0.9548
vn 0.4538 0.6197 -0.6402
vn 0.7486 0.4495 -0.4873
vn 0.8054 -0.0003 -0.5928
vn -0.7570 0.3004 -0.5803
vn -0.9150 0.3930 0.0909
vn 0.5312 -0.2869 -0.7972
vn 0.8971 -0.4319 -0.0927
vn 0.0780 0.9967 0.0206
vn 0.0104 -0.9998 -0.0190
vn 0.0094 -0.9998 -0.0175
vn 0.0103 -0.9998 -0.0192
vn -0.9941 0.0593 0.0905
vn -0.6074 0.5757 0.5473
vn -0.5380 0.8385 0.0865
vn -0.7711 0.5236 -0.3623
vn -0.7228 0.0370 -0.6900
vn 0.5769 0.8045 -0.1412
vn 0.5921 0.4921 -0.6381
vn 0.3916 0.0085 -0.9201
vn 0.9907 -0.0099 -0.1354
vn 0.6436 -0.4688 -0.6049
vn 0.7844 0.4960 0.3723
vn -0.7648 -0.4464 -0.4646
vn 0.8982 -0.4354 -0.0607
vn 0.6510 -0.2902 -0.7014
vn 0.6044 -0.7906 -0.0974
vn 0.4262 -0.6257 -0.6533
vn -0.1382 -0.9863 -0.0896
vn -0.0906 -0.7615 -0.6417
vn -0.7783 -0.6279 -0.0001
vn -0.6239 -0.4838 -0.6138
vn -0.9990 -0.0375 0.0233
vn -0.7637 0.0046 -0.6456
vn -0.9946 0.1032 0.0038
vn -0.7661 -0.0081 -0.6426
vn -0.9979 0.0650 -0.0038
vn -0.7674 -0.2996 -0.5667
vn -0.6644 0.2702 -0.6968
vn -0.3719 0.4555 -0.8088
vn -0.0327 0.6342 -0.7725
vn 0.3654 0.3960 -0.8424
vn 0.6301 0.0878 -0.7715
vn 0.7483 -0.1318 -0.6501
vn 0.7299 -0.3507 -0.5867
vn -0.9373 0.3457 0.0446
vn -0.5923 0.2464 0.7671
vn -0.6425 0.7662 0.0094
vn -0.3627 0.4554 0.8130
vn 0.0033 1.0000 0.0053
vn -0.0386 0.6185 0.7848
vn 0.7389 0.6738 -0.0109
vn 0.3782 0.4024 0.8336
vn 0.9975 0.0630 -0.0301
vn 0.6950 0.0762 0.7149
vn 0.9987 -0.0452 -0.0251
vn 0.6969 0.1476 0.7018
vn 0.9994 -0.0113 -0.0336
vn 0.6939 0.4303 0.5773
vn 0.7102 -0.3283 0.6227
vn 0.3995 -0.7350 0.5478
vn -0.0663 -0.8351 0.5460
vn -0.6199 -0.4822 0.6189
vn -0.7278 -0.0037 0.6858
vn -0.6278 0.2460 0.7385
vn -0.6439 0.4819 0.5943
vn 0.8055 0.0000 0.5925
vn 0.8061 -0.0003 -0.5918
vn 0.2973 -0.0011 -0.9548
vn 0.4539 0.6195 -0.6404
vn 0.4538 0.6196 -0.6404
vn 0.2978 0.0000 0.9546
vn 0.1807 0.0000 0.9835
vn 0.1506 0.0000 0.9886
vn 0.2358 -0.3152 0.9193
vn 0.2975 -0.0001 -0.9547
vn 0.2977 0.0007 -0.9546
vn 0.4062 -0.6189 -0.6722
vn 0.3798 -0.9249 -0.0134
vn 0.3774 -0.9260 -0.0103
vn 0.3763 -0.9264 -0.0145
vn 0.3781 -0.9257 -0.0101
vn 0.3794 -0.9252 0.0000
vn 0.4694 -0.4459 0.7621
vn 0.1404 -0.2675 0.9532
vn 0.7019 -0.5249 -0.4815
vn 0.7842 0.0003 -0.6205
vn 0.4472 0.0000 0.8944
vn 0.2973 0.0005 -0.9548
vn 0.1081 0.0000 0.9941
vn 0.1066 0.0000 0.9943
vn 0.2972 -0.0007 -0.9548
vn 0.0000 0.0000 1.0000
vn 0.1003 0.0000 0.9949
usemtl Material
s 1
f 15//1 107//2 76//2 93//2 2//3 3//4 16//5
f 17//6 18//7 7//8 6//9 96//10 79//10 110//10
f 164//11 100//12 10//13 99//14
f 2//3 109//15 78//15 95//15 6//9 7//8 3//4
f 3//4 7//8 13//16 11//17
f 5//18 94//19 77//20 108//21 1//22 4//23 8//24
f 162//25 113//26 9//27 97//28
f 18//7 8//24 14//29 21//30
f 8//24 4//23 12//31 14//29
f 16//5 3//4 11//17 20//32
f 4//23 16//5 20//32 12//31
f 7//8 18//7 21//30 13//16
f 159//11 106//11 19//14 105//14
f 5//18 8//24 18//7 17//6 104//33 86//33 116//33
f 1//22 115//34 85//35 103//36 15//1 16//5 4//23
f 36//37 35//38 24//39 22//40
f 23//41 22//40 24//39 25//42 27//43 26//44
f 52//45 51//46 26//44 27//43
f 35//38 67//47 25//42 24//39
f 67//47 52//45 27//43 25//42
f 51//46 75//48 23//41 26//44
f 75//48 36//37 22//40 23//41
f 12//31 20//32 43//49 68//50
f 68//50 43//49 42//51 69//52
f 69//52 42//51 41//53 70//54
f 70//54 41//53 40//55 71//56
f 71//56 40//55 39//57 72//58
f 72//58 39//57 38//59 73//60
f 73//60 38//59 37//61 74//62
f 74//62 37//61 36//37 75//48
f 14//29 12//31 68//50 44//63
f 44//63 68//50 69//52 45//64
f 45//64 69//52 70//54 46//65
f 46//65 70//54 71//56 47//66
f 47//66 71//56 72//58 48//67
f 48//67 72//58 73//60 49//68
f 49//68 73//60 74//62 50//69
f 50//69 74//62 75//48 51//46
f 13//16 21//30 59//70 60//71
f 60//71 59//70 58//72 61//73
f 61//73 58//72 57//74 62//75
f 62//75 57//74 56//76 63//77
f 63//77 56//76 55//78 64//79
f 64//79 55//78 54//80 65//81
f 65//81 54//80 53//82 66//83
f 66//83 53//82 52//45 67//47
f 11//17 13//16 60//71 28//84
f 28//84 60//71 61//73 29//85
f 29//85 61//73 62//75 30//86
f 30//86 62//75 63//77 31//87
f 31//87 63//77 64//79 32//88
f 32//88 64//79 65//81 33//89
f 33//89 65//81 66//83 34//90
f 34//90 66//83 67//47 35//38
f 21//30 14//29 44//63 59//70
f 59//70 44//63 45//64 58//72
f 58//72 45//64 46//65 57//74
f 57//74 46//65 47//66 56//76
f 56//76 47//66 48//67 55//78
f 55//78 48//67 49//68 54//80
f 54//80 49//68 50//69 53//82
f 53//82 50//69 51//46 52//45
f 20//32 11//17 28//84 43//49
f 43//49 28//84 29//85 42//51
f 42//51 29//85 30//86 41//53
f 41//53 30//86 31//87 40//55
f 40//55 31//87 32//88 39//57
f 39//57 32//88 33//89 38//59
f 38//59 33//89 34//90 37//61
f 37//61 34//90 35//38 36//37
f 97//28 9//27 117//14 87//14 105//14 19//14 111//14 82//14 99//14 10//13 98//91 81//91 80//92
f 158//11 120//11 87//14 117//14
f 157//11 121//11 89//11 122//11
f 156//11 119//11 88//11 123//11
f 147//93 101//94 84//95 132//93
f 146//96 133//96 81//91 98//91
f 145//96 134//97 91//96 135//96
f 143//11 137//11 82//14 111//14
f 142//11 138//11 92//11 139//11
f 141//11 112//12 83//12 140//11
f 138//11 141//11 140//11 92//11
f 79//10 96//10 141//11 138//11
f 96//10 6//9 112//12 141//11
f 119//11 142//11 139//11 88//11
f 17//6 110//10 142//11 119//11
f 110//10 79//10 138//11 142//11
f 106//11 143//11 111//14 19//14
f 88//11 139//11 143//11 106//11
f 139//11 92//11 137//11 143//11
f 78//15 109//15 144//98 134//97
f 109//15 2//3 114//99 144//98
f 112//12 145//96 135//96 83//12
f 6//9 95//15 145//96 112//12
f 95//15 78//15 134//97 145//96
f 100//12 146//96 98//91 10//13
f 83//12 135//96 146//96 100//12
f 135//96 91//96 133//96 146//96
f 130//100 147//93 132//93 90//25
f 77//20 94//19 147//93 130//100
f 94//19 5//18 101//94 147//93
f 1//22 108//21 148//101 102//102
f 108//21 77//20 130//100 148//101
f 85//35 115//34 150//103 126//104
f 115//34 1//22 102//102 150//103
f 15//1 103//36 151//105 118//106
f 103//36 85//35 126//104 151//105
f 76//2 107//2 153//107 124//107
f 107//2 15//1 118//106 153//107
f 2//3 93//2 154//107 114//99
f 93//2 76//2 124//107 154//107
f 121//11 156//11 123//11 89//11
f 86//33 104//33 156//11 121//11
f 104//33 17//6 119//11 156//11
f 101//94 157//11 122//11 84//95
f 5//18 116//33 157//11 101//94
f 116//33 86//33 121//11 157//11
f 113//26 158//11 117//14 9//27
f 84//95 122//11 158//11 113//26
f 122//11 89//11 120//11 158//11
f 120//11 159//11 105//14 87//14
f 89//11 123//11 159//11 120//11
f 123//11 88//11 106//11 159//11
f 160//108 149//109 102//102 125//110
f 160//108 125//110 127//111 161//112
f 148//101 130//100 168//113 127//111 125//110 102//102
f 114//99 160//108 131//114 149//109
f 160//108 161//112 128//115 131//114
f 144//98 114//99 149//109 155//98
f 129//116 162//25 97//28 80//92
f 90//25 132//93 162//25 129//116
f 132//93 84//95 113//26 162//25
f 170//117 134//97 152//118 136//118
f 161//112 170//117 136//118 128//115
f 136//118 152//118 155//98 149//109 131//114 128//115
f 137//11 164//11 99//14 82//14
f 92//11 140//11 164//11 137//11
f 140//11 83//12 100//12 164//11
f 134//97 144//98 155//98 152//118
l 163 170
l 168 165
l 170 166
l 165 167
l 166 169
