# Blender v2.78 (sub 0) OBJ File: 'tp2_plane_part3.blend'
# www.blender.org
mtllib part3.mtl
o Cube.002
v 2.102745 1.597900 -1.981423
v 0.586732 0.850362 -1.512901
v 0.583634 1.066134 -1.779296
v 0.583694 1.079876 -1.337748
v 0.580595 1.295649 -1.604144
v 0.197899 0.887880 -1.582020
vn 0.1845 -0.7627 -0.6199
vn 0.0017 0.7771 0.6294
vn 0.4776 -0.5290 0.7015
vn -0.3026 0.5757 -0.7596
vn -0.1959 -0.5965 0.7783
vn -0.5660 0.4954 -0.6590
vn -0.6182 0.6073 0.4991
vn 0.0369 -0.7763 -0.6292
usemtl Material
s off
f 2//1 3//1 1//1
f 4//2 1//2 5//2
f 2//3 1//3 4//3
f 1//4 3//4 5//4
f 2//5 4//5 6//5
f 5//6 3//6 6//6
f 4//7 5//7 6//7
f 3//8 2//8 6//8
