# Blender v2.78 (sub 0) OBJ File: 'tp2_plane_part4.blend'
# www.blender.org
mtllib part4.mtl
o Cube.003
v 1.679863 0.652186 -3.486235
v 0.745089 0.349453 -2.516351
v 0.667086 0.522728 -2.715567
v 0.792563 0.533763 -2.383927
v 0.714560 0.707038 -2.583143
v 0.507828 0.350505 -2.260996
vn -0.3182 -0.7735 -0.5481
vn 0.4761 0.7473 0.4635
vn 0.6863 -0.5326 0.4952
vn -0.5395 0.5785 -0.6118
vn 0.6051 -0.5614 0.5645
vn -0.9130 0.3655 -0.1814
vn -0.1632 0.7119 0.6831
vn -0.4917 -0.7431 -0.4538
usemtl Material
s off
f 2//1 3//1 1//1
f 4//2 1//2 5//2
f 2//3 1//3 4//3
f 1//4 3//4 5//4
f 2//5 4//5 6//5
f 5//6 3//6 6//6
f 4//7 5//7 6//7
f 3//8 2//8 6//8
