# Blender v2.78 (sub 0) OBJ File: 'tp2_plane_part2.blend'
# www.blender.org
mtllib part2.mtl
o Cube.004
v 2.283557 1.900589 1.077098
v 0.847824 1.034137 0.562754
v 0.850319 1.167252 0.878678
v 0.784544 1.297047 0.461568
v 0.787039 1.430161 0.777493
v 0.471918 0.978744 0.676782
vn -0.3863 0.8511 -0.3556
vn 0.2078 -0.9020 0.3784
vn -0.4464 0.2258 0.8659
vn 0.2740 -0.2873 -0.9178
vn 0.2128 0.3952 0.8936
vn 0.5338 -0.1887 -0.8243
vn 0.7691 -0.5911 0.2430
vn -0.2454 0.8940 -0.3748
usemtl Material
s off
f 2//1 3//1 1//1
f 4//2 1//2 5//2
f 2//3 1//3 4//3
f 1//4 3//4 5//4
f 2//5 4//5 6//5
f 5//6 3//6 6//6
f 4//7 5//7 6//7
f 3//8 2//8 6//8
