# Blender v2.78 (sub 0) OBJ File: 'tp2_plane_part2.blend'
# www.blender.org
mtllib part2.mtl
o Cube.004
v 1.077098 1.900589 -2.283557
v 0.562754 1.034137 -0.847824
v 0.878678 1.167252 -0.850319
v 0.461568 1.297047 -0.784544
v 0.777493 1.430161 -0.787039
v 0.676782 0.978744 -0.471918
vn -0.3556 0.8511 0.3863
vn 0.3784 -0.9020 -0.2078
vn 0.8659 0.2258 0.4464
vn -0.9178 -0.2873 -0.2740
vn 0.8936 0.3952 -0.2128
vn -0.8243 -0.1887 -0.5338
vn 0.2430 -0.5911 -0.7691
vn -0.3748 0.8940 0.2454
usemtl Material
s off
f 2//1 3//1 1//1
f 4//2 1//2 5//2
f 2//3 1//3 4//3
f 1//4 3//4 5//4
f 2//5 4//5 6//5
f 5//6 3//6 6//6
f 4//7 5//7 6//7
f 3//8 2//8 6//8
